<svg width="688.8874999999999px" height="230.6px" xmlns="http://www.w3.org/2000/svg" viewBox="-94.44374999999997 -40.3 688.8874999999999 230.6" style="background: none;" preserveAspectRatio="xMidYMid"><defs><linearGradient id="editing-glowing-gradient" x1="0.3454915028125263" x2="0.6545084971874737" y1="0.024471741852423234" y2="0.9755282581475768"><stop offset="0" stop-color="#00ffdd"></stop><stop offset="1" stop-color="#009cff"></stop></linearGradient><filter id="editing-glowing" x="-100%" y="-100%" width="300%" height="300%"><feGaussianBlur in="SourceGraphic" result="blur" stdDeviation="30"></feGaussianBlur><feMerge><feMergeNode in="blur"></feMergeNode><feMergeNode in="SourceGraphic"></feMergeNode></feMerge></filter></defs><g filter="url(#editing-glowing)"><g transform="translate(2.609992027282715, 104.57999730110168)"><path d="M56.49-49.22L56.49-1.93L56.49-1.93Q55.20-0.64 52.76 0.05L52.76 0.05L52.76 0.05Q50.32 0.74 46.92 0.74L46.92 0.74L46.92 0.74Q43.52 0.74 40.48-0.28L40.48-0.28L40.48-0.28Q37.44-1.29 35.51-5.15L35.51-5.15L26.40-23.74L26.40-23.74Q25.02-26.59 23.92-29.12L23.92-29.12L23.92-29.12Q22.82-31.65 21.53-34.96L21.53-34.96L20.98-34.87L20.98-34.87Q21.34-29.90 21.39-24.75L21.39-24.75L21.39-24.75Q21.44-19.60 21.44-14.63L21.44-14.63L21.44-0.37L21.44-0.37Q20.42-0.09 18.35 0.18L18.35 0.18L18.35 0.18Q16.28 0.46 14.26 0.46L14.26 0.46L14.26 0.46Q12.24 0.46 10.67 0.18L10.67 0.18L10.67 0.18Q9.11-0.09 8.10-0.92L8.10-0.92L8.10-0.92Q7.08-1.75 6.53-3.17L6.53-3.17L6.53-3.17Q5.98-4.60 5.98-6.90L5.98-6.90L5.98-52.90L5.98-52.90Q7.27-54.74 9.94-55.66L9.94-55.66L9.94-55.66Q12.60-56.58 15.64-56.58L15.64-56.58L15.64-56.58Q19.04-56.58 22.13-55.52L22.13-55.52L22.13-55.52Q25.21-54.46 27.05-50.69L27.05-50.69L36.25-32.11L36.25-32.11Q37.63-29.26 38.73-26.73L38.73-26.73L38.73-26.73Q39.84-24.20 41.12-20.88L41.12-20.88L41.58-20.98L41.58-20.98Q41.22-25.94 41.12-30.91L41.12-30.91L41.12-30.91Q41.03-35.88 41.03-40.85L41.03-40.85L41.03-55.75L41.03-55.75Q42.04-56.03 44.11-56.30L44.11-56.30L44.11-56.30Q46.18-56.58 48.21-56.58L48.21-56.58L48.21-56.58Q52.26-56.58 54.37-55.15L54.37-55.15L54.37-55.15Q56.49-53.73 56.49-49.22L56.49-49.22ZM68.45-8.28L68.45-47.20L68.45-47.20Q68.45-51.15 70.75-53.45L70.75-53.45L70.75-53.45Q73.05-55.75 77.00-55.75L77.00-55.75L107.36-55.75L107.36-55.75Q108.01-54.74 108.51-53.08L108.51-53.08L108.51-53.08Q109.02-51.43 109.02-49.59L109.02-49.59L109.02-49.59Q109.02-46.09 107.50-44.62L107.50-44.62L107.50-44.62Q105.98-43.15 103.50-43.15L103.50-43.15L84.09-43.15L84.09-34.59L104.79-34.59L104.79-34.59Q105.43-33.58 105.94-31.97L105.94-31.97L105.94-31.97Q106.44-30.36 106.44-28.52L106.44-28.52L106.44-28.52Q106.44-25.02 104.97-23.55L104.97-23.55L104.97-23.55Q103.50-22.08 101.02-22.08L101.02-22.08L84.09-22.08L84.09-12.42L107.73-12.42L107.73-12.42Q108.38-11.41 108.88-9.75L108.88-9.75L108.88-9.75Q109.39-8.10 109.39-6.26L109.39-6.26L109.39-6.26Q109.39-2.76 107.87-1.24L107.87-1.24L107.87-1.24Q106.35 0.28 103.87 0.28L103.87 0.28L77.00 0.28L77.00 0.28Q73.05 0.28 70.75-2.02L70.75-2.02L70.75-2.02Q68.45-4.32 68.45-8.28L68.45-8.28ZM129.63-28.34L115.00-48.94L115.00-48.94Q115.46-50.23 116.29-51.52L116.29-51.52L116.29-51.52Q117.12-52.81 118.36-53.87L118.36-53.87L118.36-53.87Q119.60-54.92 121.26-55.61L121.26-55.61L121.26-55.61Q122.91-56.30 124.94-56.30L124.94-56.30L124.94-56.30Q127.60-56.30 129.63-54.97L129.63-54.97L129.63-54.97Q131.65-53.64 133.77-50.42L133.77-50.42L140.94-39.47L151.52-55.11L151.52-55.11Q152.26-55.48 153.59-55.80L153.59-55.80L153.59-55.80Q154.93-56.12 156.22-56.12L156.22-56.12L156.22-56.12Q160.45-56.12 162.84-54.10L162.84-54.10L162.84-54.10Q165.23-52.07 165.23-49.13L165.23-49.13L165.23-49.13Q165.23-46.55 163.90-44.53L163.90-44.53L163.90-44.53Q162.56-42.50 160.26-39.65L160.26-39.65L150.79-28.06L165.78-6.62L165.78-6.62Q165.05-3.22 162.61-1.24L162.61-1.24L162.61-1.24Q160.17 0.74 156.03 0.74L156.03 0.74L156.03 0.74Q153.36 0.74 151.43-0.60L151.43-0.60L151.43-0.60Q149.50-1.93 147.48-5.15L147.48-5.15L140.02-16.93L128.43 0.55L128.43 0.55Q127.70 0.64 127.05 0.69L127.05 0.69L127.05 0.69Q126.41 0.74 125.76 0.74L125.76 0.74L125.76 0.74Q120.52 0.74 118.04-1.38L118.04-1.38L118.04-1.38Q115.55-3.50 115.55-6.62L115.55-6.62L115.55-6.62Q115.55-9.29 116.70-11.27L116.70-11.27L116.70-11.27Q117.85-13.25 119.97-15.92L119.97-15.92L129.63-28.34ZM185.84-42.87L172.04-42.87L172.04-42.87Q171.40-43.88 170.84-45.63L170.84-45.63L170.84-45.63Q170.29-47.38 170.29-49.31L170.29-49.31L170.29-49.31Q170.29-52.90 171.90-54.46L171.90-54.46L171.90-54.46Q173.51-56.03 176.09-56.03L176.09-56.03L216.20-56.03L216.20-56.03Q216.84-55.02 217.40-53.27L217.40-53.27L217.40-53.27Q217.95-51.52 217.95-49.59L217.95-49.59L217.95-49.59Q217.95-46 216.34-44.44L216.34-44.44L216.34-44.44Q214.73-42.87 212.15-42.87L212.15-42.87L201.94-42.87L201.94-0.37L201.94-0.37Q200.93-0.09 198.77 0.18L198.77 0.18L198.77 0.18Q196.60 0.46 194.49 0.46L194.49 0.46L194.49 0.46Q192.37 0.46 190.76 0.14L190.76 0.14L190.76 0.14Q189.15-0.18 188.05-1.01L188.05-1.01L188.05-1.01Q186.94-1.84 186.39-3.31L186.39-3.31L186.39-3.31Q185.84-4.78 185.84-7.18L185.84-7.18L185.84-42.87ZM262.48-13.71L262.48-13.71L262.48-13.71Q261.28-12.70 259.39-12.10L259.39-12.10L259.39-12.10Q257.51-11.50 255.02-11.50L255.02-11.50L255.02-11.50Q251.71-11.50 249.55-12.33L249.55-12.33L249.55-12.33Q247.39-13.16 246.74-15.18L246.74-15.18L246.74-15.18Q244.17-23.28 242.51-28.29L242.51-28.29L242.51-28.29Q240.86-33.30 239.94-37.08L239.94-37.08L239.48-37.08L239.48-37.08Q239.20-31.65 239.06-27.19L239.06-27.19L239.06-27.19Q238.92-22.72 238.88-18.49L238.88-18.49L238.88-18.49Q238.83-14.26 238.69-9.94L238.69-9.94L238.69-9.94Q238.56-5.61 238.28-0.37L238.28-0.37L238.28-0.37Q237.08 0.09 235.15 0.41L235.15 0.41L235.15 0.41Q233.22 0.74 231.29 0.74L231.29 0.74L231.29 0.74Q227.24 0.74 224.99-0.55L224.99-0.55L224.99-0.55Q222.73-1.84 222.73-5.24L222.73-5.24L225.40-52.16L225.40-52.16Q226.14-53.36 228.62-54.74L228.62-54.74L228.62-54.74Q231.10-56.12 235.61-56.12L235.61-56.12L235.61-56.12Q240.49-56.12 243.25-54.60L243.25-54.60L243.25-54.60Q246.01-53.08 247.30-49.68L247.30-49.68L247.30-49.68Q248.12-47.47 249.09-44.62L249.09-44.62L249.09-44.62Q250.06-41.77 251.02-38.73L251.02-38.73L251.02-38.73Q251.99-35.70 252.91-32.71L252.91-32.71L252.91-32.71Q253.83-29.72 254.56-27.32L254.56-27.32L255.02-27.32L255.02-27.32Q257.23-35.05 259.44-42.27L259.44-42.27L259.44-42.27Q261.65-49.50 263.49-54.37L263.49-54.37L263.49-54.37Q264.87-55.11 267.03-55.61L267.03-55.61L267.03-55.61Q269.19-56.12 271.86-56.12L271.86-56.12L271.86-56.12Q276.37-56.12 279.22-54.79L279.22-54.79L279.22-54.79Q282.07-53.45 282.53-50.97L282.53-50.97L282.53-50.97Q282.90-49.13 283.31-45.31L283.31-45.31L283.31-45.31Q283.73-41.49 284.19-36.71L284.19-36.71L284.19-36.71Q284.65-31.92 285.11-26.59L285.11-26.59L285.11-26.59Q285.57-21.25 285.98-16.33L285.98-16.33L285.98-16.33Q286.40-11.41 286.67-7.31L286.67-7.31L286.67-7.31Q286.95-3.22 287.04-1.01L287.04-1.01L287.04-1.01Q285.48-0.09 283.77 0.32L283.77 0.32L283.77 0.32Q282.07 0.74 279.40 0.74L279.40 0.74L279.40 0.74Q275.91 0.74 273.52-0.46L273.52-0.46L273.52-0.46Q271.12-1.66 270.94-5.15L270.94-5.15L270.94-5.15Q270.39-15.18 270.25-23.18L270.25-23.18L270.25-23.18Q270.11-31.19 269.84-36.62L269.84-36.62L269.38-36.62L269.38-36.62Q268.46-33.03 266.71-27.60L266.71-27.60L266.71-27.60Q264.96-22.17 262.48-13.71ZM294.03-27.97L294.03-27.97L294.03-27.97Q294.03-35.14 296.29-40.66L296.29-40.66L296.29-40.66Q298.54-46.18 302.45-49.91L302.45-49.91L302.45-49.91Q306.36-53.64 311.65-55.57L311.65-55.57L311.65-55.57Q316.94-57.50 323.10-57.50L323.10-57.50L323.10-57.50Q329.27-57.50 334.56-55.57L334.56-55.57L334.56-55.57Q339.85-53.64 343.80-49.91L343.80-49.91L343.80-49.91Q347.76-46.18 350.01-40.66L350.01-40.66L350.01-40.66Q352.27-35.14 352.27-27.97L352.27-27.97L352.27-27.97Q352.27-20.79 350.06-15.23L350.06-15.23L350.06-15.23Q347.85-9.66 343.94-5.93L343.94-5.93L343.94-5.93Q340.03-2.21 334.70-0.28L334.70-0.28L334.70-0.28Q329.36 1.66 323.10 1.66L323.10 1.66L323.10 1.66Q316.85 1.66 311.51-0.32L311.51-0.32L311.51-0.32Q306.18-2.30 302.31-6.07L302.31-6.07L302.31-6.07Q298.45-9.84 296.24-15.36L296.24-15.36L296.24-15.36Q294.03-20.88 294.03-27.97ZM310.59-27.97L310.59-27.97L310.59-27.97Q310.59-19.60 314.00-15.46L314.00-15.46L314.00-15.46Q317.40-11.32 323.10-11.32L323.10-11.32L323.10-11.32Q328.90-11.32 332.30-15.46L332.30-15.46L332.30-15.46Q335.71-19.60 335.71-27.97L335.71-27.97L335.71-27.97Q335.71-36.25 332.35-40.39L332.35-40.39L332.35-40.39Q328.99-44.53 323.20-44.53L323.20-44.53L323.20-44.53Q317.49-44.53 314.04-40.43L314.04-40.43L314.04-40.43Q310.59-36.34 310.59-27.97ZM394.86-1.84L394.86-1.84L394.86-1.84Q393.58-0.74 390.86 0.09L390.86 0.09L390.86 0.09Q388.15 0.92 384.93 0.92L384.93 0.92L384.93 0.92Q381.06 0.92 378.30-0.23L378.30-0.23L378.30-0.23Q375.54-1.38 374.53-3.40L374.53-3.40L374.53-3.40Q373.52-5.52 372.05-8.88L372.05-8.88L372.05-8.88Q370.58-12.24 368.97-16.38L368.97-16.38L368.97-16.38Q367.36-20.52 365.65-25.16L365.65-25.16L365.65-25.16Q363.95-29.81 362.39-34.59L362.39-34.59L362.39-34.59Q360.82-39.38 359.44-43.98L359.44-43.98L359.44-43.98Q358.06-48.58 357.05-52.62L357.05-52.62L357.05-52.62Q358.34-53.91 360.78-54.97L360.78-54.97L360.78-54.97Q363.22-56.03 365.98-56.03L365.98-56.03L365.98-56.03Q369.38-56.03 371.54-54.60L371.54-54.60L371.54-54.60Q373.70-53.18 374.72-49.31L374.72-49.31L374.72-49.31Q377.20-40.30 379.73-32.06L379.73-32.06L379.73-32.06Q382.26-23.83 385.02-14.90L385.02-14.90L385.57-14.90L385.57-14.90Q388.06-23.55 390.68-33.76L390.68-33.76L390.68-33.76Q393.30-43.98 395.69-54.10L395.69-54.10L395.69-54.10Q397.35-54.92 399.23-55.48L399.23-55.48L399.23-55.48Q401.12-56.03 403.51-56.03L403.51-56.03L403.51-56.03Q406.92-56.03 409.31-54.51L409.31-54.51L409.31-54.51Q411.70-52.99 411.70-49.50L411.70-49.50L411.70-49.50Q411.70-47.47 410.73-43.61L410.73-43.61L410.73-43.61Q409.77-39.74 408.25-34.91L408.25-34.91L408.25-34.91Q406.73-30.08 404.85-24.84L404.85-24.84L404.85-24.84Q402.96-19.60 401.07-14.95L401.07-14.95L401.07-14.95Q399.19-10.30 397.53-6.76L397.53-6.76L397.53-6.76Q395.88-3.22 394.86-1.84ZM435.90-48.94L435.90-0.37L435.90-0.37Q434.88-0.09 432.72 0.18L432.72 0.18L432.72 0.18Q430.56 0.46 428.44 0.46L428.44 0.46L428.44 0.46Q426.33 0.46 424.72 0.14L424.72 0.14L424.72 0.14Q423.11-0.18 422.00-1.01L422.00-1.01L422.00-1.01Q420.90-1.84 420.35-3.31L420.35-3.31L420.35-3.31Q419.80-4.78 419.80-7.18L419.80-7.18L419.80-55.75L419.80-55.75Q420.81-55.94 423.02-56.26L423.02-56.26L423.02-56.26Q425.22-56.58 427.25-56.58L427.25-56.58L427.25-56.58Q429.36-56.58 430.97-56.26L430.97-56.26L430.97-56.26Q432.58-55.94 433.69-55.11L433.69-55.11L433.69-55.11Q434.79-54.28 435.34-52.81L435.34-52.81L435.34-52.81Q435.90-51.34 435.90-48.94L435.90-48.94ZM447.86-8.28L447.86-47.20L447.86-47.20Q447.86-51.15 450.16-53.45L450.16-53.45L450.16-53.45Q452.46-55.75 456.41-55.75L456.41-55.75L486.77-55.75L486.77-55.75Q487.42-54.74 487.92-53.08L487.92-53.08L487.92-53.08Q488.43-51.43 488.43-49.59L488.43-49.59L488.43-49.59Q488.43-46.09 486.91-44.62L486.91-44.62L486.91-44.62Q485.39-43.15 482.91-43.15L482.91-43.15L463.50-43.15L463.50-34.59L484.20-34.59L484.20-34.59Q484.84-33.58 485.35-31.97L485.35-31.97L485.35-31.97Q485.85-30.36 485.85-28.52L485.85-28.52L485.85-28.52Q485.85-25.02 484.38-23.55L484.38-23.55L484.38-23.55Q482.91-22.08 480.42-22.08L480.42-22.08L463.50-22.08L463.50-12.42L487.14-12.42L487.14-12.42Q487.78-11.41 488.29-9.75L488.29-9.75L488.29-9.75Q488.80-8.10 488.80-6.26L488.80-6.26L488.80-6.26Q488.80-2.76 487.28-1.24L487.28-1.24L487.28-1.24Q485.76 0.28 483.28 0.28L483.28 0.28L456.41 0.28L456.41 0.28Q452.46 0.28 450.16-2.02L450.16-2.02L450.16-2.02Q447.86-4.32 447.86-8.28L447.86-8.28Z" fill="url(#editing-glowing-gradient)"></path></g></g><style>text {
  font-size: 64px;
  font-family: Arial Black;
  dominant-baseline: central;
  text-anchor: middle;
}</style></svg>